<?xml version="1.0" encoding="UTF-8" standalone="no"?>
<svg
   fill="none"
   viewBox="0 0 54 33"
   version="1.1"
   id="svg2"
   sodipodi:docname="tailwindcss.svg"
   inkscape:version="1.3 (0e150ed6c4, 2023-07-21)"
   xmlns:inkscape="http://www.inkscape.org/namespaces/inkscape"
   xmlns:sodipodi="http://sodipodi.sourceforge.net/DTD/sodipodi-0.dtd"
   xmlns="http://www.w3.org/2000/svg"
   xmlns:svg="http://www.w3.org/2000/svg">
  <sodipodi:namedview
     id="namedview2"
     pagecolor="#ffffff"
     bordercolor="#000000"
     borderopacity="0.25"
     inkscape:showpageshadow="2"
     inkscape:pageopacity="0.0"
     inkscape:pagecheckerboard="0"
     inkscape:deskcolor="#d1d1d1"
     inkscape:zoom="16.322693"
     inkscape:cx="17.582883"
     inkscape:cy="20.829896"
     inkscape:window-width="1920"
     inkscape:window-height="1057"
     inkscape:window-x="1920"
     inkscape:window-y="0"
     inkscape:window-maximized="1"
     inkscape:current-layer="svg2" />
  <path
     fill="#38bdf8"
     fill-rule="evenodd"
     d="m 27,0.64472449 c -7.049599,0 -11.455598,3.52479941 -13.217998,10.57439851 2.6436,-3.5247996 5.727799,-4.8465994 9.252599,-3.9653996 2.011094,0.502284 3.448428,1.9621384 5.039484,3.5766926 2.591706,2.630871 5.591702,5.675906 12.143913,5.675906 7.049599,0 11.455598,-3.524799 13.217998,-10.5743983 -2.6436,3.5247994 -5.727799,4.8465993 -9.252599,3.9653993 C 42.172303,9.3950391 40.734969,7.9351847 39.143913,6.3206307 36.552207,3.6897596 33.552211,0.64472449 27,0.64472449 Z M 13.782002,16.506322 c -7.0495988,0 -11.4555981,3.524799 -13.21799782,10.574398 2.64359962,-3.524799 5.72779912,-4.846599 9.25259852,-3.965399 2.0110943,0.503263 3.4484293,1.962138 5.0394843,3.576692 2.591707,2.630871 5.591702,5.675906 12.143913,5.675906 7.049599,0 11.455598,-3.524799 13.217998,-10.574398 -2.6436,3.5248 -5.727799,4.846599 -9.252599,3.9654 -2.011094,-0.502284 -3.448428,-1.962139 -5.039484,-3.576693 -2.591706,-2.630871 -5.591702,-5.675906 -12.143913,-5.675906 z"
     clip-rule="evenodd"
     id="path1"
     style="stroke:#000000;stroke-width:0.75;stroke-opacity:1;stroke-dasharray:none" />
  <defs
     id="defs2" />
</svg>
